<svg width="40" height="40" viewBox="0 0 40 40" fill="none" xmlns="http://www.w3.org/2000/svg">
<path d="M35.1999 4.8C34.2461 3.89499 32.9814 3.39046 31.6666 3.39046C30.3517 3.39046 29.087 3.89499 28.1332 4.8L24.0999 8.81667C23.3746 9.55026 22.894 10.4902 22.7239 11.5077C22.5538 12.5252 22.7026 13.5704 23.1499 14.5L19.5666 18.0833L16.2332 14.75C15.6319 14.1342 14.8818 13.684 14.0555 13.4431C13.2292 13.2021 12.3547 13.1785 11.5166 13.3747C10.6785 13.5708 9.90524 13.9799 9.27164 14.5625C8.63803 15.145 8.16554 15.8813 7.8999 16.7L3.46657 30.0333C3.17195 30.9135 3.12815 31.8584 3.34009 32.762C3.55203 33.6657 4.01133 34.4926 4.66657 35.15C5.14189 35.6396 5.71242 36.0268 6.34301 36.2876C6.9736 36.5485 7.65091 36.6775 8.33323 36.6667C8.9002 36.6773 9.46454 36.587 9.9999 36.4L23.3332 31.9667C24.1519 31.701 24.8882 31.2285 25.4708 30.5949C26.0533 29.9613 26.4625 29.1881 26.6586 28.35C26.8547 27.5119 26.8311 26.6374 26.5902 25.8111C26.3492 24.9848 25.8991 24.2347 25.2832 23.6333L21.9499 20.3L25.5332 16.7167C26.4628 17.164 27.508 17.3128 28.5255 17.1427C29.543 16.9726 30.483 16.492 31.2166 15.7667L35.2332 11.7333C36.125 10.7975 36.6197 9.55264 36.6135 8.25995C36.6073 6.96726 36.1007 5.72722 35.1999 4.8ZM22.8332 26.05C23.0316 26.2521 23.1752 26.5014 23.2504 26.7743C23.3257 27.0473 23.3302 27.3349 23.2635 27.6101C23.1968 27.8853 23.0611 28.139 22.8692 28.3471C22.6772 28.5553 22.4354 28.7112 22.1666 28.8L8.86657 33.3333C8.57711 33.4218 8.26904 33.4297 7.97541 33.3563C7.68179 33.2829 7.41369 33.1309 7.1999 32.9167C6.98566 32.7029 6.83369 32.4348 6.76028 32.1412C6.68687 31.8475 6.69481 31.5395 6.78323 31.25L11.2332 17.9167C11.2967 17.6224 11.4386 17.3507 11.6441 17.1307C11.8495 16.9106 12.1107 16.7502 12.3999 16.6667C12.5273 16.6529 12.6558 16.6529 12.7832 16.6667C13.2205 16.6685 13.6395 16.8421 13.9499 17.15L17.2832 20.4833L15.8332 21.9167C15.677 22.0716 15.553 22.2559 15.4684 22.459C15.3838 22.6621 15.3402 22.88 15.3402 23.1C15.3402 23.32 15.3838 23.5379 15.4684 23.741C15.553 23.9441 15.677 24.1284 15.8332 24.2833C15.9882 24.4395 16.1725 24.5635 16.3756 24.6482C16.5787 24.7328 16.7965 24.7763 17.0166 24.7763C17.2366 24.7763 17.4544 24.7328 17.6575 24.6482C17.8606 24.5635 18.045 24.4395 18.1999 24.2833L19.6332 22.8333L22.8332 26.05ZM32.8332 9.51667L28.8166 13.5333C28.5826 13.7627 28.2862 13.918 27.9645 13.9798C27.6427 14.0417 27.3099 14.0073 27.0076 13.881C26.7053 13.7548 26.4468 13.5422 26.2647 13.2699C26.0825 12.9976 25.9846 12.6776 25.9832 12.35C25.9851 11.9128 26.1587 11.4938 26.4666 11.1833L30.4832 7.15C30.6382 6.99379 30.8225 6.8698 31.0256 6.78518C31.2287 6.70057 31.4465 6.657 31.6666 6.657C31.8866 6.657 32.1044 6.70057 32.3075 6.78518C32.5106 6.8698 32.695 6.99379 32.8499 7.15C33.0061 7.30494 33.1301 7.48927 33.2147 7.69237C33.2993 7.89547 33.3429 8.11331 33.3429 8.33333C33.3429 8.55335 33.2993 8.7712 33.2147 8.9743C33.1301 9.17739 33.0061 9.36173 32.8499 9.51667H32.8332Z" fill="#1A1A1A"/>
</svg>
