<svg width="40" height="40" viewBox="0 0 40 40" fill="none" xmlns="http://www.w3.org/2000/svg">
<path d="M33.3334 16.1167V15.8333C33.3435 12.9982 32.4439 10.2347 30.767 7.94869C29.09 5.66273 26.724 3.97494 24.0167 3.13333H23.9167C22.5184 2.70706 21.0616 2.50456 19.6 2.53333C16.1197 2.72432 12.8435 4.23625 10.44 6.76054C8.03652 9.28484 6.68693 12.6312 6.66669 16.1167C5.69004 16.4602 4.84413 17.0985 4.24572 17.9434C3.64731 18.7882 3.32593 19.798 3.32593 20.8333C3.32593 21.8687 3.64731 22.8784 4.24572 23.7233C4.84413 24.5682 5.69004 25.2064 6.66669 25.55C7.00997 28.8413 8.56489 31.8873 11.0292 34.0959C13.4934 36.3045 16.6909 37.5179 20 37.5H20.3834C23.5833 37.3451 26.6249 36.0614 28.9682 33.8768C31.3114 31.6922 32.8049 28.7479 33.1834 25.5667C34.1715 25.2425 35.034 24.6184 35.6507 23.781C36.2675 22.9437 36.6078 21.9349 36.6243 20.8951C36.6408 19.8553 36.3327 18.8362 35.7428 17.9797C35.153 17.1232 34.3107 16.472 33.3334 16.1167ZM20.3 34.1667C17.8874 34.2365 15.5309 33.4313 13.6654 31.8997C11.7999 30.3681 10.5513 28.2134 10.15 25.8333H29.7667C29.3599 28.0865 28.2033 30.1359 26.4847 31.6488C24.7662 33.1616 22.5866 34.0489 20.3 34.1667ZM31.6667 22.5H8.33336C7.89133 22.5 7.46741 22.3244 7.15485 22.0118C6.84229 21.6993 6.66669 21.2754 6.66669 20.8333C6.66669 20.3913 6.84229 19.9674 7.15485 19.6548C7.46741 19.3423 7.89133 19.1667 8.33336 19.1667H11.6667C12.1087 19.1667 12.5326 18.9911 12.8452 18.6785C13.1578 18.366 13.3334 17.942 13.3334 17.5C13.3334 17.058 13.1578 16.6341 12.8452 16.3215C12.5326 16.0089 12.1087 15.8333 11.6667 15.8333H10C10.0746 14.1044 10.5688 12.4195 11.4399 10.9241C12.311 9.42874 13.5328 8.16777 15 7.25V12.5C15 12.942 15.1756 13.366 15.4882 13.6785C15.8007 13.9911 16.2247 14.1667 16.6667 14.1667C17.1087 14.1667 17.5326 13.9911 17.8452 13.6785C18.1578 13.366 18.3334 12.942 18.3334 12.5V5.98333C18.7857 5.90775 19.242 5.85768 19.7 5.83333H20C20.5586 5.8412 21.1157 5.89134 21.6667 5.98333V12.5C21.6667 12.942 21.8423 13.366 22.1549 13.6785C22.4674 13.9911 22.8913 14.1667 23.3334 14.1667C23.7754 14.1667 24.1993 13.9911 24.5119 13.6785C24.8244 13.366 25 12.942 25 12.5V7.2C25.707 7.60938 26.3666 8.09566 26.9667 8.65C27.9276 9.58316 28.6913 10.6999 29.2124 11.9338C29.7334 13.1678 30.0013 14.4939 30 15.8333H28.3334C27.8913 15.8333 27.4674 16.0089 27.1549 16.3215C26.8423 16.6341 26.6667 17.058 26.6667 17.5C26.6667 17.942 26.8423 18.366 27.1549 18.6785C27.4674 18.9911 27.8913 19.1667 28.3334 19.1667H31.6667C32.1087 19.1667 32.5326 19.3423 32.8452 19.6548C33.1578 19.9674 33.3334 20.3913 33.3334 20.8333C33.3334 21.2754 33.1578 21.6993 32.8452 22.0118C32.5326 22.3244 32.1087 22.5 31.6667 22.5Z" fill="#1A1A1A"/>
</svg>
