<svg width="40" height="40" viewBox="0 0 40 40" fill="none" xmlns="http://www.w3.org/2000/svg">
<path d="M33.3334 5.83334H6.66675C5.34067 5.83334 4.0689 6.36012 3.13121 7.2978C2.19353 8.23548 1.66675 9.50725 1.66675 10.8333V32.5C1.66675 32.942 1.84234 33.366 2.1549 33.6785C2.46746 33.9911 2.89139 34.1667 3.33341 34.1667H10.0001C10.2746 34.1653 10.5445 34.096 10.7858 33.9652C11.0272 33.8344 11.2324 33.6459 11.3834 33.4167L14.2334 29.1667H25.7667L28.6167 33.4167C28.7677 33.6459 28.973 33.8344 29.2143 33.9652C29.4557 34.096 29.7256 34.1653 30.0001 34.1667H36.6667C37.1088 34.1667 37.5327 33.9911 37.8453 33.6785C38.1578 33.366 38.3334 32.942 38.3334 32.5V10.8333C38.3334 9.50725 37.8066 8.23548 36.8689 7.2978C35.9313 6.36012 34.6595 5.83334 33.3334 5.83334ZM35.0001 30.8333H30.9001L28.0501 26.6667C27.909 26.4219 27.7081 26.217 27.4661 26.0713C27.2241 25.9255 26.9491 25.8436 26.6667 25.8333H13.3334C13.0589 25.8348 12.789 25.904 12.5477 26.0348C12.3063 26.1656 12.1011 26.3541 11.9501 26.5833L9.10008 30.8333H5.00008V22.5H35.0001V30.8333ZM11.6667 19.1667V17.5C11.6667 17.058 11.8423 16.6341 12.1549 16.3215C12.4675 16.0089 12.8914 15.8333 13.3334 15.8333H16.6667C17.1088 15.8333 17.5327 16.0089 17.8453 16.3215C18.1578 16.6341 18.3334 17.058 18.3334 17.5V19.1667H11.6667ZM21.6667 19.1667V17.5C21.6667 17.058 21.8423 16.6341 22.1549 16.3215C22.4675 16.0089 22.8914 15.8333 23.3334 15.8333H26.6667C27.1088 15.8333 27.5327 16.0089 27.8453 16.3215C28.1578 16.6341 28.3334 17.058 28.3334 17.5V19.1667H21.6667ZM35.0001 19.1667H31.6667V17.5C31.6667 16.1739 31.14 14.9022 30.2023 13.9645C29.2646 13.0268 27.9928 12.5 26.6667 12.5H23.3334C22.1 12.5074 20.9128 12.9704 20.0001 13.8C19.0874 12.9704 17.9002 12.5074 16.6667 12.5H13.3334C12.0073 12.5 10.7356 13.0268 9.79788 13.9645C8.8602 14.9022 8.33341 16.1739 8.33341 17.5V19.1667H5.00008V10.8333C5.00008 10.3913 5.17568 9.96739 5.48824 9.65482C5.8008 9.34226 6.22472 9.16667 6.66675 9.16667H33.3334C33.7754 9.16667 34.1994 9.34226 34.5119 9.65482C34.8245 9.96739 35.0001 10.3913 35.0001 10.8333V19.1667Z" fill="#1A1A1A"/>
</svg>
